<svg width="120" height="53" viewBox="0 0 120 53" fill="none" xmlns="http://www.w3.org/2000/svg">
<mask id="mask0_14168_25948" style="mask-type:alpha" maskUnits="userSpaceOnUse" x="0" y="-1" width="120" height="54">
<rect y="-0.00210571" width="120" height="52.5" fill="#D9D9D9"/>
</mask>
<g mask="url(#mask0_14168_25948)">
<path d="M70.65 28.0687C68.2594 29.2781 65.8125 30.2062 62.7094 30.2062C58.7437 30.2062 55.9219 28.3687 55.6781 24.6187H72.7031C72.7031 16.875 70.4156 11.2219 60.9844 11.2312C53.3344 11.2406 49.5563 16.5281 49.5563 22.9312C49.5563 30.2062 54.2906 34.425 62.4188 34.425C65.8594 34.425 68.5406 33.6094 70.8844 32.4469L70.65 28.0687ZM61.3687 15.45C65.2031 15.4781 66.3937 17.8594 66.5812 20.6531H55.6781C55.9687 17.6812 57.7781 15.4219 61.3687 15.45ZM81.6281 33.7875H75.225V3.77812H81.6281V20.4937H81.7031L89.8312 11.6156H96.9469L88.0031 21.5531L98.0906 33.7875H90.2531L81.7406 23.0344H81.6469V33.7875H81.6281ZM119.634 28.6031C119.588 26.9625 119.616 25.5187 119.616 23.2781V20.4375C119.616 13.8937 116.512 11.1 109.003 11.1C106.275 11.1 102.844 11.7656 100.359 12.7969L100.716 17.6437C102.863 16.1812 105.516 15.3187 108.234 15.3187C112.012 15.3187 113.784 16.5281 113.784 20.0906H110.241C107.559 20.0906 104.409 20.3062 101.972 21.3844C99.5344 22.4625 97.7625 24.3937 97.7625 27.7125C97.7625 31.7156 102.019 34.2937 106.369 34.2937C109.284 34.2937 112.491 32.9156 113.972 30.4687H114.066C114.112 31.1531 114.113 32.6156 114.356 33.7781H120C119.859 32.0625 119.681 30.2812 119.634 28.6031ZM112.444 28.1062C111.441 29.3062 109.913 30.0844 107.953 30.0844C105.656 30.0844 103.912 29.0625 103.894 27.375C103.837 23.9719 108.15 23.55 111.019 23.55H113.794C113.794 25.2656 113.503 26.8594 112.453 28.1062H112.444ZM28.1531 33.7875H19.0219V15.0094H25.4063V28.0969H29.4469C35.0437 28.0969 40.8281 25.3031 40.8281 18.7687C40.8281 12.2344 34.9406 9.45 29.4469 9.38437H19.0219V3.75H28.1531C37.8563 3.76875 47.5219 6.84375 47.4188 18.7687C47.325 30.3281 38.3813 33.7875 28.1531 33.7875ZM9.51562 20.5781H15.8531V33.7781H9.51562V20.5781ZM0 26.1562H6.3375V33.7875H0V26.1562ZM44.4562 41.475C41.9062 41.475 40.65 43.2375 40.65 45.375C40.65 47.7937 42.225 49.2 44.9344 49.2C46.0781 49.2 46.9687 49.0031 47.7562 48.6094V47.0437C46.9594 47.4469 46.0688 47.7844 45.0375 47.7844C43.7156 47.7844 42.7969 47.1094 42.6938 45.9281H48.3656C48.3656 43.35 47.5031 41.475 44.4656 41.475H44.4562ZM42.6938 44.6156C42.7875 43.6219 43.3969 42.8812 44.5875 42.8812C45.7781 42.8812 46.2562 43.6875 46.3219 44.6156H42.6938ZM81.0656 41.475C78.5156 41.475 77.2594 43.2375 77.2594 45.375C77.2594 47.7937 78.8344 49.2 81.5438 49.2C82.6969 49.2 83.5781 49.0031 84.3656 48.6094V47.0437C83.5687 47.4469 82.6781 47.7844 81.6469 47.7844C80.325 47.7844 79.4062 47.1094 79.3031 45.9281H84.975C84.975 43.35 84.1125 41.475 81.075 41.475H81.0656ZM79.3031 44.6156C79.3969 43.6219 80.0063 42.8812 81.1969 42.8812C82.3875 42.8812 82.8656 43.6875 82.9312 44.6156H79.3031ZM19.0219 39.0281H21.2531V49.0312H19.0219V39.0281ZM30.9094 44.3625V49.0219H28.7813V45.0844C28.7813 44.1844 28.7625 42.9656 27.3937 42.9656C25.8469 42.9656 25.5094 44.4656 25.5094 45.4125V49.0219H23.3719V41.6437H25.3969V42.6469H25.425C26.0906 41.8031 27 41.475 28.1156 41.475C30.0562 41.475 30.9 42.7031 30.9 44.3719L30.9094 44.3625ZM38.0438 41.6437H40.1813L37.1531 49.0219H34.7438L31.7062 41.6437H33.9937L36.0281 47.0156H36.0656L38.0438 41.6437ZM55.6688 46.7906C55.6688 48.5156 53.9625 49.2 52.2281 49.2C51.4219 49.2 50.5875 49.0688 49.8094 48.8813L49.9406 47.3062C50.6063 47.6062 51.3094 47.7938 52.0406 47.7938C52.5844 47.7938 53.4375 47.6062 53.4375 46.8937C53.4375 45.45 49.725 46.4344 49.725 43.7719C49.725 42.1781 51.2719 41.4844 52.9406 41.4844C53.9438 41.4844 54.6 41.625 55.2656 41.7562L55.125 43.2C54.4781 43.0031 53.9906 42.8812 53.2125 42.8812C52.6406 42.8812 51.9562 43.0687 51.9562 43.6969C51.9562 44.8687 55.6594 44.1281 55.6594 46.7906H55.6688ZM108.037 46.7906C108.037 48.5156 106.331 49.2 104.597 49.2C103.781 49.2 102.956 49.0688 102.178 48.8813L102.3 47.3062C102.966 47.6062 103.669 47.7938 104.4 47.7938C104.944 47.7938 105.797 47.6062 105.797 46.8937C105.797 45.45 102.084 46.4344 102.084 43.7719C102.084 42.1781 103.631 41.4844 105.3 41.4844C106.303 41.4844 106.95 41.625 107.625 41.7562L107.484 43.2C106.828 43.0031 106.35 42.8812 105.572 42.8812C105 42.8812 104.316 43.0687 104.316 43.6969C104.316 44.8687 108.028 44.1281 108.028 46.7906H108.037ZM62.1188 47.5031L62.1844 49.0219C61.7344 49.1344 61.2469 49.1906 60.6094 49.1906C58.9406 49.1906 58.0125 48.2625 58.0125 46.8V43.0406H56.4375V41.6344H58.0125V40.1625L60.15 39.5437V41.6344H62.0438V43.0406H60.15V46.4812C60.15 47.1094 60.3375 47.7 61.1531 47.7C61.5375 47.7 61.9031 47.625 62.1281 47.4937L62.1188 47.5031ZM75.8531 44.3719V49.0312H73.725V44.6344C73.725 43.95 73.725 42.975 72.4969 42.975C71.0813 42.975 70.9031 44.4938 70.9031 45.45V49.0312H68.7656V44.6344C68.7656 43.95 68.7656 42.975 67.5375 42.975C66.1219 42.975 65.9437 44.4938 65.9437 45.45V49.0312H63.8062V41.6531H65.7938V42.6844H65.8219C66.4875 41.7844 67.4625 41.4844 68.2594 41.4844C69.4031 41.4844 70.2187 41.8688 70.6781 42.7875C71.175 41.8969 72.2344 41.4844 73.2469 41.4844C75.2625 41.4844 75.8438 42.7312 75.8438 44.3812L75.8531 44.3719ZM94.0219 44.3719V49.0312H91.8937V45.0937C91.8937 44.1937 91.875 42.975 90.5063 42.975C88.9594 42.975 88.6313 44.475 88.6313 45.4219V49.0312H86.4938V41.6531H88.5094V42.6562H88.5469C89.2125 41.8125 90.1219 41.4844 91.2375 41.4844C93.1781 41.4844 94.0219 42.7125 94.0219 44.3812V44.3719ZM100.688 47.5031L100.753 49.0219C100.303 49.1344 99.8156 49.1906 99.1781 49.1906C97.5094 49.1906 96.5812 48.2625 96.5812 46.8V43.0406H95.0062V41.6344H96.5812V40.1625L98.7094 39.5437V41.6344H100.603V43.0406H98.7094V46.4812C98.7094 47.1094 98.8969 47.7 99.7125 47.7C100.097 47.7 100.453 47.625 100.678 47.4937L100.688 47.5031Z" fill="#EE0000"/>
</g>
</svg>
